<svg width="946" height="942" viewBox="0 0 946 942" fill="none" xmlns="http://www.w3.org/2000/svg">
<path fill-rule="evenodd" clip-rule="evenodd" d="M556.845 0C550.006 0 543.656 1.46544 537.795 3.41924C550.251 11.7231 557.089 22.7135 560.508 35.1693C560.753 36.8789 561.241 38.1001 561.486 39.8096C561.73 41.275 561.974 42.7404 561.974 44.2059C562.951 65.6981 556.356 68.3847 551.716 81.0847C544.633 97.4482 546.587 115.033 555.135 129.198C555.868 130.908 556.845 132.862 558.066 134.571C548.785 72.7808 600.318 63.5001 609.843 44.2059C610.576 27.3539 596.655 16.1192 585.664 8.30385C575.162 1.95386 565.637 0 556.845 0ZM634.51 13.9212C633.533 19.5385 634.266 18.0731 634.022 21.0039C633.778 22.9577 633.778 25.4001 633.534 27.3539C633.046 29.3077 632.557 31.2615 631.824 33.2155C631.336 35.1693 630.603 37.1231 629.871 39.0769C628.893 41.0309 628.161 42.7404 627.184 44.6943C626.451 45.6716 625.963 46.6481 625.23 47.6251C624.742 48.3578 624.253 49.0905 623.765 49.8231C622.544 51.5328 621.323 53.2424 620.101 54.7077C618.636 56.1732 617.415 57.8827 615.705 59.104C615.705 59.3485 615.705 59.3485 615.705 59.3485C614.24 60.5697 612.774 62.0351 611.065 63.2562C605.936 67.1638 600.075 70.0946 594.701 73.7581C592.992 74.9792 591.282 75.9562 589.817 77.4216C588.107 78.6427 586.642 79.8638 585.176 81.3293C583.467 82.7946 582.246 84.2601 580.78 85.9697C579.559 87.4351 578.094 89.1447 577.117 90.8543C575.896 92.5639 574.675 94.2735 573.698 95.9831C572.72 97.9369 571.988 99.6466 571.011 101.6C570.278 103.554 569.546 105.264 569.057 107.218C568.324 109.416 567.836 111.37 567.348 113.324C567.103 114.301 567.103 115.522 566.859 116.499C566.614 117.476 566.615 118.452 566.371 119.429C566.371 121.383 566.127 123.581 566.127 125.535C566.127 127 566.127 128.466 566.371 129.931C566.371 131.885 566.616 133.839 567.104 136.037C567.349 137.991 567.837 139.945 568.325 141.899C569.058 143.852 569.546 145.806 570.279 147.76C570.767 148.981 571.5 150.202 571.989 151.179L515.816 129.443C506.291 126.756 497.01 124.314 487.485 122.116C482.356 120.895 477.227 119.674 472.098 118.452C457.444 115.522 442.546 113.324 427.648 111.858C427.16 111.858 426.916 111.614 426.427 111.614C411.773 110.148 397.364 109.416 382.71 109.416C371.964 109.416 361.217 109.904 350.715 110.637C335.817 111.614 320.919 113.568 306.021 116.01C302.358 116.498 298.694 117.231 295.031 117.964C287.46 119.429 280.133 121.139 273.05 122.848C269.386 123.826 265.723 124.802 262.059 125.779C258.396 127.244 254.977 128.954 251.558 130.419C248.871 131.641 246.184 132.862 243.498 134.083C243.01 134.327 242.521 134.327 242.277 134.571C239.834 135.792 237.636 136.769 235.438 137.99C234.706 138.235 234.217 138.478 233.729 138.723C231.042 139.944 228.356 141.409 226.158 142.631C224.448 143.363 222.738 144.34 221.273 145.073C220.54 145.561 219.563 146.05 219.075 146.294C216.877 147.515 214.679 148.736 212.725 149.958C210.527 151.179 208.573 152.4 206.863 153.621C205.154 154.842 203.444 155.819 201.979 157.04C201.734 157.285 201.491 157.285 201.246 157.528C199.781 158.506 198.071 159.726 196.606 160.948C196.606 160.948 196.361 161.192 196.118 161.436C194.896 162.413 193.675 163.389 192.454 164.366C191.966 164.611 191.477 165.099 190.989 165.344C189.768 166.321 188.546 167.542 187.325 168.519C187.081 169.007 186.593 169.251 186.348 169.496C184.883 170.961 183.417 172.183 181.952 173.648C181.707 173.648 181.707 173.893 181.464 174.136C179.998 175.357 178.533 176.823 177.067 178.288C176.823 178.533 176.823 178.776 176.579 178.776C175.358 179.997 174.137 181.218 172.916 182.684C172.428 183.172 171.695 183.661 171.206 184.149C169.985 185.614 168.52 187.08 167.054 188.545C166.81 189.033 166.322 189.278 166.077 189.766C164.123 191.72 162.414 193.674 160.46 195.628C160.215 195.873 159.972 196.116 159.727 196.361C155.819 200.513 151.667 204.665 147.271 208.328C142.875 212.236 138.235 215.899 133.594 219.074C128.71 222.493 124.069 225.424 118.94 228.355C114.056 231.041 108.927 233.484 103.554 235.682C98.4251 237.88 93.052 239.834 87.679 241.543C77.4212 243.741 66.9192 247.893 57.8827 248.626C55.9289 248.626 53.7308 249.114 51.777 249.359C49.5789 249.847 47.6251 250.336 45.6712 250.824C43.7174 251.557 41.7635 252.29 39.8096 253.022C37.8558 253.755 35.902 254.732 33.9482 255.709C32.2385 256.93 30.2847 257.907 28.575 259.128C26.8654 260.349 25.1558 261.814 23.6904 263.28C21.9808 264.501 20.2712 266.211 18.8058 267.676C17.3404 269.386 15.875 270.851 14.6538 272.561C13.4327 274.514 11.9673 276.224 10.9903 278.178C9.76922 279.888 8.5481 281.842 7.57113 283.795C6.59381 285.993 5.6173 287.947 4.8846 290.145C4.1519 292.099 3.41921 294.297 2.68651 296.495C2.19843 298.449 1.7092 300.403 1.46539 302.357C1.46539 302.602 1.22078 302.845 1.22078 303.09C0.732693 305.288 0.732693 308.219 0.488076 309.684C0.243469 311.394 0 312.859 0 314.569C0 315.546 7.6031e-07 316.767 0.244608 317.743C0.489214 319.453 0.732683 320.919 1.22192 322.384C1.71 323.849 2.19923 325.315 2.93147 326.78C2.93147 327.025 2.93147 327.025 2.93147 327.025C3.66417 328.49 4.64114 329.955 5.618 331.421C6.59531 332.886 7.57194 334.352 8.79306 335.817C10.0142 337.038 11.4796 338.503 12.945 339.725C14.4104 341.19 15.8758 342.411 17.5853 343.632C23.4469 348.761 24.9123 350.471 32.4835 354.379C33.7046 355.111 34.9258 355.6 36.3912 356.332C36.6359 356.332 36.8793 356.577 37.1239 356.577C37.1239 357.065 37.1239 357.31 37.3686 357.798C37.6132 359.752 38.1013 361.706 38.5897 363.66C39.0778 365.858 39.8109 367.812 40.5436 369.521C41.2763 370.987 41.7648 372.452 42.4975 373.917C42.7421 374.406 42.9855 374.895 43.2302 375.139C44.2075 377.092 45.184 378.802 46.1608 380.512C47.3821 382.221 48.6032 383.931 49.8243 385.641C51.0455 387.106 52.5108 388.816 53.9762 390.281C55.4416 391.746 56.907 392.967 58.6167 394.433C58.6167 394.433 58.8614 394.678 59.1048 394.678C60.5702 395.899 62.0356 397.12 63.501 398.097C65.2105 399.318 66.9202 400.295 68.874 401.272C70.5837 402.249 72.5375 403.226 74.4913 403.958C75.9567 404.691 77.6663 405.18 79.376 405.668C79.6206 405.913 79.864 405.913 80.3533 406.156C81.3306 406.401 82.5512 406.644 83.5282 406.889C82.7955 420.077 82.5509 432.533 84.5055 436.929C86.7035 441.814 97.4497 426.916 108.196 409.82C106.731 426.672 105.754 446.454 108.196 452.316C110.882 458.422 125.536 439.372 138.236 418.368C311.396 378.314 469.414 497.987 486.021 666.995C482.846 640.618 450.364 625.964 435.466 629.628C428.139 647.701 415.683 670.903 395.656 685.312C397.366 669.193 396.633 652.585 393.214 636.466C387.84 658.935 377.339 679.939 362.929 698.012C339.727 699.722 316.525 688.487 304.313 671.635C303.336 670.903 303.092 669.437 302.359 668.46C301.627 666.751 300.894 665.041 300.406 663.331C299.673 661.622 299.185 659.912 298.94 658.203C298.696 656.493 298.696 654.783 298.696 652.83C298.696 651.608 298.696 650.387 298.696 649.166C298.94 647.456 299.428 645.747 299.917 644.037C300.405 642.328 300.894 640.618 301.626 638.908C302.604 637.199 303.336 635.489 304.557 633.78C308.709 622.056 308.709 612.531 301.138 606.914C299.673 605.937 298.207 605.204 296.498 604.472C295.52 604.227 294.299 603.739 293.323 603.494C292.59 603.25 292.101 603.006 291.369 602.762C289.659 602.274 287.949 601.784 286.24 601.541C284.53 601.053 282.821 600.808 281.111 600.808C279.401 600.563 277.447 600.32 275.738 600.32C274.517 600.32 273.296 600.564 272.074 600.564C270.121 600.564 268.411 600.809 266.701 601.297C264.992 601.542 263.282 601.785 261.573 602.274C259.863 602.762 258.153 603.252 256.444 603.984C254.734 604.717 253.269 605.449 251.559 606.182C250.094 606.915 248.628 607.892 246.919 608.624C190.013 645.747 223.961 732.694 262.794 757.849C248.14 760.536 233.242 763.711 229.09 766.886C228.845 767.131 228.602 767.374 228.602 767.374C239.104 773.724 250.094 779.097 261.573 783.738C277.204 788.866 293.811 793.507 301.138 795.461V795.705C321.41 799.857 341.925 801.323 362.685 800.101C470.879 792.53 559.535 710.224 575.654 601.786C576.142 603.984 576.631 605.938 577.12 608.136C577.852 612.532 578.829 617.172 579.317 621.813C579.317 621.813 579.317 621.813 579.317 622.058C579.806 624.256 580.05 626.454 580.295 628.408C580.295 628.896 580.295 629.14 580.295 629.385C580.54 631.583 580.783 633.781 580.783 635.735C581.027 638.421 581.271 641.108 581.271 643.795C581.271 645.016 581.271 646.237 581.271 647.702C581.271 648.923 581.516 650.389 581.516 651.61C581.516 653.075 581.271 654.541 581.271 656.006C581.271 657.227 581.271 658.448 581.271 659.425C581.271 661.135 581.026 662.6 581.026 664.31C581.026 665.287 581.026 666.264 580.782 667.485C580.782 669.195 580.537 670.904 580.537 672.858C580.292 673.591 580.292 674.323 580.292 675.056C580.048 677.01 579.804 678.72 579.559 680.674C579.559 681.406 579.559 682.139 579.315 682.872C579.07 685.314 578.582 687.512 578.338 689.954V690.199V690.444C577.85 692.642 577.36 695.084 576.872 697.282C576.872 697.527 576.872 697.77 576.872 698.015C576.384 700.213 575.895 702.411 575.407 704.609C575.407 704.854 575.162 705.342 575.162 705.586C574.674 707.784 574.185 709.982 573.453 712.181C573.453 712.425 573.453 712.669 573.453 712.913C572.72 715.355 571.987 717.554 571.499 719.752C571.254 719.996 571.254 720.24 571.254 720.24C570.522 722.682 569.789 725.124 569.056 727.567C568.079 730.009 567.347 732.207 566.37 734.649C565.393 737.092 564.66 739.534 563.683 741.732C562.706 744.175 561.729 746.373 560.752 748.815H560.507C559.53 751.013 558.553 753.455 557.332 755.653C557.088 756.386 556.844 756.875 556.6 757.363C556.355 757.608 556.355 757.851 556.112 758.096C540.237 790.09 516.79 818.176 487.483 840.157C485.529 841.378 483.575 842.844 481.621 844.309C481.133 844.797 480.4 845.042 479.912 845.53C478.202 846.751 476.492 847.973 474.539 849.194L475.271 850.659H475.516C478.935 850.171 482.354 849.682 485.773 849.194H486.018C492.368 848.217 498.718 846.996 505.068 845.775C506.778 845.53 508.732 845.042 510.441 844.553C511.662 844.308 512.639 844.065 513.86 843.821C515.57 843.576 517.28 843.088 518.989 842.843C520.455 842.355 521.92 842.111 523.385 841.622C547.808 835.761 571.499 827.701 594.212 818.176C555.38 871.174 503.358 913.915 442.545 942.001C470.632 940.047 498.718 935.407 525.828 927.592C624.253 898.528 707.047 832.341 756.626 743.197C746.612 799.614 724.143 853.345 690.928 900.238C714.618 884.607 736.355 866.534 756.138 846.018C810.845 788.868 846.747 716.332 858.959 638.422C867.263 677.01 869.705 716.82 866.041 756.141C1042.38 510.201 880.695 255.224 813.043 188.06C812.798 187.572 812.555 187.327 812.555 186.839C812.31 187.083 812.31 187.083 812.31 187.327C812.31 187.082 812.31 187.082 812.066 186.839C812.066 189.77 811.821 192.7 811.578 195.631C810.845 201.248 810.112 206.622 809.135 211.995C807.914 217.368 806.449 222.741 804.983 228.114C803.274 233.243 801.32 238.616 799.122 243.745C796.924 248.629 794.482 253.758 791.795 258.643C789.108 263.283 786.178 268.168 783.003 272.564C779.828 277.204 776.408 281.6 772.989 285.752C769.326 290.149 765.418 294.056 761.51 297.964C759.068 300.162 756.87 302.116 754.428 304.07C752.474 305.779 750.764 307.245 748.81 308.954C744.414 312.373 740.018 315.549 735.133 318.479C730.493 321.41 725.609 324.341 720.724 326.783C715.595 329.226 710.466 331.424 705.337 333.622C700.208 335.575 694.835 337.285 689.462 338.751C684.089 340.216 678.472 341.437 673.099 342.414C667.481 343.391 661.864 343.879 656.491 344.368C652.583 344.612 648.676 344.856 644.768 344.856C639.151 344.856 633.533 344.368 628.16 343.879C622.543 343.391 616.926 342.657 611.553 341.436C605.935 340.459 600.562 338.994 595.189 337.284H594.945C600.318 336.796 605.691 336.307 611.064 335.33C616.681 334.353 622.054 333.132 627.427 331.667C632.8 330.202 638.173 328.492 643.302 326.538C648.675 324.584 653.804 322.142 658.689 319.7C663.818 317.257 668.458 314.571 673.343 311.64C677.983 308.465 682.623 305.29 687.02 301.871C691.416 298.452 695.568 294.788 699.475 290.88C703.627 287.217 707.291 283.065 710.954 278.913C714.618 274.517 718.037 270.121 721.212 265.725C721.7 264.992 722.189 264.015 722.677 263.282C725.12 259.375 727.562 255.467 729.76 251.559C732.447 246.675 734.889 241.79 737.087 236.661C739.285 231.532 741.239 226.403 742.949 221.03C744.658 215.901 745.879 210.528 747.1 205.155C748.078 199.538 749.054 194.165 749.543 188.792C750.031 183.175 750.52 177.557 750.52 172.184C750.52 168.276 750.275 164.369 750.032 160.461C749.544 154.844 748.811 149.471 748.078 144.098C747.101 138.48 745.88 133.107 744.415 127.734C742.705 122.605 740.995 117.232 739.042 112.103C737.088 106.975 734.645 101.846 732.203 96.961C729.517 92.0764 726.83 87.1918 723.899 82.5515C720.724 77.9111 717.549 73.5149 714.13 69.1187C710.467 64.9668 706.803 60.8149 702.895 56.663C700.941 54.7091 698.743 52.511 696.545 50.5572C685.555 42.0091 674.076 33.9494 662.597 26.6225C660.888 25.6453 659.422 24.9129 657.713 24.1802C649.653 19.0514 642.081 16.3634 634.51 13.9212Z" fill="#E0234E"/>
</svg>
