<svg xmlns="http://www.w3.org/2000/svg" xmlns:xlink="http://www.w3.org/1999/xlink" width="672" height="211pt" viewBox="0 0 504 211"><g id="graph0" class="graph" transform="scale(1 1) rotate(0) translate(4 207)"><title>dependencies</title><polygon fill="#fff" stroke="transparent" points="-4 4 -4 -207 500 -207 500 4 -4 4"/><text x="227.01" y="-42.4" font-family="Times-12" font-size="14" font-weight="bold" text-anchor="start">Legend</text><polygon fill="#ffffb3" stroke="transparent" points="14 -10 14 -30 34 -30 34 -10 14 -10"/><text x="37.63" y="-15.4" font-family="Times-12" font-size="14" text-anchor="start">Declarations</text><polygon fill="#8dd3c7" stroke="transparent" points="127 -10 127 -30 147 -30 147 -10 127 -10"/><text x="150.73" y="-15.4" font-family="Times-12" font-size="14" text-anchor="start">Module</text><polygon fill="#80b1d3" stroke="transparent" points="213 -10 213 -30 233 -30 233 -10 213 -10"/><text x="236.78" y="-15.4" font-family="Times-12" font-size="14" text-anchor="start">Bootstrap</text><polygon fill="#fdb462" stroke="transparent" points="310 -10 310 -30 330 -30 330 -10 310 -10"/><text x="333.67" y="-15.4" font-family="Times-12" font-size="14" text-anchor="start">Providers</text><polygon fill="#fb8072" stroke="transparent" points="406 -10 406 -30 426 -30 426 -10 406 -10"/><text x="429.73" y="-15.4" font-family="Times-12" font-size="14" text-anchor="start">Exports</text><g id="clust1" class="cluster"><title>cluster_CheckoutModule</title><polygon fill="none" stroke="#000" stroke-dasharray="1 5" points="94 -70 94 -195 402 -195 402 -70 94 -70"/></g><g id="clust6" class="cluster"><title>cluster_CheckoutModule_providers</title><polygon fill="none" stroke="#000" points="224 -78 224 -130 394 -130 394 -78 224 -78"/></g><g id="clust3" class="cluster"><title>cluster_CheckoutModule_imports</title><polygon fill="none" stroke="#000" points="102 -78 102 -130 216 -130 216 -78 102 -78"/></g><g id="node1" class="node"><title>OrdersModule</title><polygon fill="#8dd3c7" stroke="#000" points="207.64 -122 204.64 -126 183.64 -126 180.64 -122 110.36 -122 110.36 -86 207.64 -86 207.64 -122"/><text x="159" y="-99.8" font-family="Times,serif" font-size="14" text-anchor="middle">OrdersModule</text></g><g id="node2" class="node"><title>CheckoutModule</title><polygon fill="#8dd3c7" stroke="#000" points="290.71 -187 287.71 -191 266.71 -191 263.71 -187 177.29 -187 177.29 -151 290.71 -151 290.71 -187"/><text x="234" y="-164.8" font-family="Times,serif" font-size="14" text-anchor="middle">CheckoutModule</text></g><g id="edge1" class="edge"><title>OrdersModule-&gt;CheckoutModule</title><path fill="none" stroke="#000" d="M192.61,-122.11C192.61,-122.11 192.61,-140.99 192.61,-140.99"/><polygon fill="#000" stroke="#000" points="189.11 -140.99 192.61 -150.99 196.11 -140.99 189.11 -140.99"/></g><g id="node3" class="node"><title>CheckoutService</title><ellipse cx="309" cy="-104" fill="#fdb462" stroke="#000" rx="77.01" ry="18"/><text x="309" y="-99.8" font-family="Times,serif" font-size="14" text-anchor="middle">CheckoutService</text></g><g id="edge2" class="edge"><title>CheckoutService-&gt;CheckoutModule</title><path fill="none" stroke="#000" d="M261.3,-118.43C261.3,-118.43 261.3,-140.89 261.3,-140.89"/><polygon fill="#000" stroke="#000" points="257.8 -140.89 261.3 -150.89 264.8 -140.89 257.8 -140.89"/></g></g></svg>