<?xml version="1.0" encoding="UTF-8" standalone="no"?>
<!DOCTYPE svg PUBLIC "-//W3C//DTD SVG 1.1//EN"
 "http://www.w3.org/Graphics/SVG/1.1/DTD/svg11.dtd">
<!-- Generated by graphviz version 2.47.0 (20210316.0004)
 -->
<!-- Title: dependencies Pages: 1 -->
<svg width="504pt" height="211pt"
 viewBox="0.00 0.00 504.00 211.00" xmlns="http://www.w3.org/2000/svg" xmlns:xlink="http://www.w3.org/1999/xlink">
<g id="graph0" class="graph" transform="scale(1 1) rotate(0) translate(4 207)">
<title>dependencies</title>
<polygon fill="white" stroke="transparent" points="-4,4 -4,-207 500,-207 500,4 -4,4"/>
<text text-anchor="start" x="227.01" y="-42.4" font-family="Times-12" font-weight="bold" font-size="14.00">Legend</text>
<polygon fill="#ffffb3" stroke="transparent" points="14,-10 14,-30 34,-30 34,-10 14,-10"/>
<text text-anchor="start" x="37.63" y="-15.4" font-family="Times-12" font-size="14.00"> &#160;Declarations</text>
<polygon fill="#8dd3c7" stroke="transparent" points="127,-10 127,-30 147,-30 147,-10 127,-10"/>
<text text-anchor="start" x="150.73" y="-15.4" font-family="Times-12" font-size="14.00"> &#160;Module</text>
<polygon fill="#80b1d3" stroke="transparent" points="213,-10 213,-30 233,-30 233,-10 213,-10"/>
<text text-anchor="start" x="236.78" y="-15.4" font-family="Times-12" font-size="14.00"> &#160;Bootstrap</text>
<polygon fill="#fdb462" stroke="transparent" points="310,-10 310,-30 330,-30 330,-10 310,-10"/>
<text text-anchor="start" x="333.67" y="-15.4" font-family="Times-12" font-size="14.00"> &#160;Providers</text>
<polygon fill="#fb8072" stroke="transparent" points="406,-10 406,-30 426,-30 426,-10 406,-10"/>
<text text-anchor="start" x="429.73" y="-15.4" font-family="Times-12" font-size="14.00"> &#160;Exports</text>
<g id="clust1" class="cluster">
<title>cluster_CheckoutModule</title>
<polygon fill="none" stroke="black" stroke-dasharray="1,5" points="41,-70 41,-195 455,-195 455,-70 41,-70"/>
</g>
<g id="clust3" class="cluster">
<title>cluster_CheckoutModule_imports</title>
<polygon fill="none" stroke="black" points="227,-78 227,-130 447,-130 447,-78 227,-78"/>
</g>
<g id="clust6" class="cluster">
<title>cluster_CheckoutModule_providers</title>
<polygon fill="none" stroke="black" points="49,-78 49,-130 219,-130 219,-78 49,-78"/>
</g>
<!-- AuthModule -->
<g id="node1" class="node">
<title>AuthModule</title>
<polygon fill="#8dd3c7" stroke="black" points="438.55,-122 435.55,-126 414.55,-126 411.55,-122 351.45,-122 351.45,-86 438.55,-86 438.55,-122"/>
<text text-anchor="middle" x="395" y="-99.8" font-family="Times,serif" font-size="14.00">AuthModule</text>
</g>
<!-- CheckoutModule -->
<g id="node3" class="node">
<title>CheckoutModule</title>
<polygon fill="#8dd3c7" stroke="black" points="340.71,-187 337.71,-191 316.71,-191 313.71,-187 227.29,-187 227.29,-151 340.71,-151 340.71,-187"/>
<text text-anchor="middle" x="284" y="-164.8" font-family="Times,serif" font-size="14.00">CheckoutModule</text>
</g>
<!-- AuthModule&#45;&gt;CheckoutModule -->
<g id="edge1" class="edge">
<title>AuthModule&#45;&gt;CheckoutModule</title>
<path fill="none" stroke="black" d="M351.42,-104C342.99,-104 336.71,-104 336.71,-104 336.71,-104 336.71,-140.89 336.71,-140.89"/>
<polygon fill="black" stroke="black" points="333.21,-140.89 336.71,-150.89 340.21,-140.89 333.21,-140.89"/>
</g>
<!-- OrdersModule -->
<g id="node2" class="node">
<title>OrdersModule</title>
<polygon fill="#8dd3c7" stroke="black" points="332.64,-122 329.64,-126 308.64,-126 305.64,-122 235.36,-122 235.36,-86 332.64,-86 332.64,-122"/>
<text text-anchor="middle" x="284" y="-99.8" font-family="Times,serif" font-size="14.00">OrdersModule</text>
</g>
<!-- OrdersModule&#45;&gt;CheckoutModule -->
<g id="edge2" class="edge">
<title>OrdersModule&#45;&gt;CheckoutModule</title>
<path fill="none" stroke="black" d="M284,-122.11C284,-122.11 284,-140.99 284,-140.99"/>
<polygon fill="black" stroke="black" points="280.5,-140.99 284,-150.99 287.5,-140.99 280.5,-140.99"/>
</g>
<!-- CheckoutService -->
<g id="node4" class="node">
<title>CheckoutService</title>
<ellipse fill="#fdb462" stroke="black" cx="134" cy="-104" rx="77.01" ry="18"/>
<text text-anchor="middle" x="134" y="-99.8" font-family="Times,serif" font-size="14.00">CheckoutService</text>
</g>
<!-- CheckoutService&#45;&gt;CheckoutModule -->
<g id="edge3" class="edge">
<title>CheckoutService&#45;&gt;CheckoutModule</title>
<path fill="none" stroke="black" d="M211.13,-104C222.94,-104 231.29,-104 231.29,-104 231.29,-104 231.29,-140.89 231.29,-140.89"/>
<polygon fill="black" stroke="black" points="227.79,-140.89 231.29,-150.89 234.79,-140.89 227.79,-140.89"/>
</g>
</g>
</svg>
