<svg xmlns="http://www.w3.org/2000/svg" xmlns:xlink="http://www.w3.org/1999/xlink" width="672" height="284pt" viewBox="0 0 504 284"><g id="graph0" class="graph" transform="scale(1 1) rotate(0) translate(4 280)"><title>dependencies</title><polygon fill="#fff" stroke="transparent" points="-4 4 -4 -280 500 -280 500 4 -4 4"/><text x="227.01" y="-42.4" font-family="Times-12" font-size="14" font-weight="bold" text-anchor="start">Legend</text><polygon fill="#ffffb3" stroke="transparent" points="14 -10 14 -30 34 -30 34 -10 14 -10"/><text x="37.63" y="-15.4" font-family="Times-12" font-size="14" text-anchor="start">Declarations</text><polygon fill="#8dd3c7" stroke="transparent" points="127 -10 127 -30 147 -30 147 -10 127 -10"/><text x="150.73" y="-15.4" font-family="Times-12" font-size="14" text-anchor="start">Module</text><polygon fill="#80b1d3" stroke="transparent" points="213 -10 213 -30 233 -30 233 -10 213 -10"/><text x="236.78" y="-15.4" font-family="Times-12" font-size="14" text-anchor="start">Bootstrap</text><polygon fill="#fdb462" stroke="transparent" points="310 -10 310 -30 330 -30 330 -10 310 -10"/><text x="333.67" y="-15.4" font-family="Times-12" font-size="14" text-anchor="start">Providers</text><polygon fill="#fb8072" stroke="transparent" points="406 -10 406 -30 426 -30 426 -10 406 -10"/><text x="429.73" y="-15.4" font-family="Times-12" font-size="14" text-anchor="start">Exports</text><g id="clust1" class="cluster"><title>cluster_AuthModule</title><polygon fill="none" stroke="#000" stroke-dasharray="1 5" points="107 -70 107 -268 389 -268 389 -70 107 -70"/></g><g id="clust4" class="cluster"><title>cluster_AuthModule_exports</title><polygon fill="none" stroke="#000" points="196 -208 196 -260 298 -260 298 -208 196 -208"/></g><g id="clust6" class="cluster"><title>cluster_AuthModule_providers</title><polygon fill="none" stroke="#000" points="115 -78 115 -130 381 -130 381 -78 115 -78"/></g><g id="node1" class="node"><title>JwtStrategy</title><polygon fill="#fb8072" stroke="#000" points="289.6 -252 204.4 -252 204.4 -216 289.6 -216 289.6 -252"/><text x="247" y="-229.8" font-family="Times,serif" font-size="14" text-anchor="middle">JwtStrategy</text></g><g id="node2" class="node"><title>AuthModule</title><polygon fill="#8dd3c7" stroke="#000" points="290.55 -187 287.55 -191 266.55 -191 263.55 -187 203.45 -187 203.45 -151 290.55 -151 290.55 -187"/><text x="247" y="-164.8" font-family="Times,serif" font-size="14" text-anchor="middle">AuthModule</text></g><g id="edge1" class="edge"><title>AuthModule-&gt;JwtStrategy</title><path fill="none" stroke="#000" stroke-dasharray="5 2" d="M247,-187.11C247,-187.11 247,-205.99 247,-205.99"/><polygon fill="#000" stroke="#000" points="243.5 -205.99 247 -215.99 250.5 -205.99 243.5 -205.99"/></g><g id="node3" class="node"><title>AuthService</title><ellipse cx="314" cy="-104" fill="#fdb462" stroke="#000" rx="59.11" ry="18"/><text x="314" y="-99.8" font-family="Times,serif" font-size="14" text-anchor="middle">AuthService</text></g><g id="edge2" class="edge"><title>AuthService-&gt;AuthModule</title><path fill="none" stroke="#000" d="M272.73,-117.15C272.73,-117.15 272.73,-140.69 272.73,-140.69"/><polygon fill="#000" stroke="#000" points="269.23 -140.69 272.73 -150.69 276.23 -140.69 269.23 -140.69"/></g><g id="node4" class="node"><title>JwtStrategy</title><ellipse cx="180" cy="-104" fill="#fdb462" stroke="#000" rx="56.76" ry="18"/><text x="180" y="-99.8" font-family="Times,serif" font-size="14" text-anchor="middle">JwtStrategy</text></g><g id="edge3" class="edge"><title>JwtStrategy-&gt;AuthModule</title><path fill="none" stroke="#000" d="M219.93,-116.84C219.93,-116.84 219.93,-140.52 219.93,-140.52"/><polygon fill="#000" stroke="#000" points="216.43 -140.52 219.93 -150.52 223.43 -140.52 216.43 -140.52"/></g></g></svg>