<svg xmlns="http://www.w3.org/2000/svg" xmlns:xlink="http://www.w3.org/1999/xlink" width="1536" height="484" viewBox="0 0 1152 363"><g id="graph0" class="graph" transform="scale(1 1) rotate(0) translate(4 359)"><title>dependencies</title><polygon fill="#fff" stroke="transparent" points="-4 4 -4 -359 1148 -359 1148 4 -4 4"/><text x="551.01" y="-42.4" font-family="Times-12" font-size="14" font-weight="bold" text-anchor="start">Legend</text><polygon fill="#ffffb3" stroke="transparent" points="338 -10 338 -30 358 -30 358 -10 338 -10"/><text x="361.63" y="-15.4" font-family="Times-12" font-size="14" text-anchor="start">Declarations</text><polygon fill="#8dd3c7" stroke="transparent" points="451 -10 451 -30 471 -30 471 -10 451 -10"/><text x="474.73" y="-15.4" font-family="Times-12" font-size="14" text-anchor="start">Module</text><polygon fill="#80b1d3" stroke="transparent" points="537 -10 537 -30 557 -30 557 -10 537 -10"/><text x="560.78" y="-15.4" font-family="Times-12" font-size="14" text-anchor="start">Bootstrap</text><polygon fill="#fdb462" stroke="transparent" points="634 -10 634 -30 654 -30 654 -10 634 -10"/><text x="657.67" y="-15.4" font-family="Times-12" font-size="14" text-anchor="start">Providers</text><polygon fill="#fb8072" stroke="transparent" points="730 -10 730 -30 750 -30 750 -10 730 -10"/><text x="753.73" y="-15.4" font-family="Times-12" font-size="14" text-anchor="start">Exports</text><g id="clust1" class="cluster"><title>cluster_AppModule</title><polygon fill="none" stroke="#000" stroke-dasharray="1 5" points="394 -146 394 -347 840 -347 840 -146 394 -146"/></g><g id="clust3" class="cluster"><title>cluster_AppModule_imports</title><polygon fill="none" stroke="#000" points="540 -154 540 -282 800 -282 800 -154 540 -154"/></g><g id="clust6" class="cluster"><title>cluster_AppModule_providers</title><polygon fill="none" stroke="#000" points="402 -230 402 -282 532 -282 532 -230 402 -230"/></g><g id="clust7" class="cluster"><title>cluster_AuthModule</title><polygon fill="none" stroke="#000" stroke-dasharray="1 5" points="425 -70 425 -138 817 -138 817 -70 425 -70"/></g><g id="clust10" class="cluster"><title>cluster_AuthModule_exports</title><polygon fill="none" stroke="#000" points="707 -78 707 -130 809 -130 809 -78 707 -78"/></g><g id="clust12" class="cluster"><title>cluster_AuthModule_providers</title><polygon fill="none" stroke="#000" points="433 -78 433 -130 699 -130 699 -78 433 -78"/></g><g id="clust13" class="cluster"><title>cluster_CheckoutModule</title><polygon fill="none" stroke="#000" stroke-dasharray="1 5" points="8 -146 8 -214 194 -214 194 -146 8 -146"/></g><g id="clust18" class="cluster"><title>cluster_CheckoutModule_providers</title><polygon fill="none" stroke="#000" points="16 -154 16 -206 186 -206 186 -154 16 -154"/></g><g id="clust19" class="cluster"><title>cluster_MedicineModule</title><polygon fill="none" stroke="#000" stroke-dasharray="1 5" points="202 -146 202 -214 386 -214 386 -146 202 -146"/></g><g id="clust24" class="cluster"><title>cluster_MedicineModule_providers</title><polygon fill="none" stroke="#000" points="210 -154 210 -206 378 -206 378 -154 210 -154"/></g><g id="clust25" class="cluster"><title>cluster_OrdersModule</title><polygon fill="none" stroke="#000" stroke-dasharray="1 5" points="848 -222 848 -290 1136 -290 1136 -222 848 -222"/></g><g id="clust28" class="cluster"><title>cluster_OrdersModule_exports</title><polygon fill="none" stroke="#000" points="1012 -230 1012 -282 1128 -282 1128 -230 1012 -230"/></g><g id="clust30" class="cluster"><title>cluster_OrdersModule_providers</title><polygon fill="none" stroke="#000" points="856 -230 856 -282 1004 -282 1004 -230 856 -230"/></g><g id="node1" class="node"><title>AuthModule</title><polygon fill="#8dd3c7" stroke="#000" points="675.55 -198 672.55 -202 651.55 -202 648.55 -198 588.45 -198 588.45 -162 675.55 -162 675.55 -198"/><text x="632" y="-175.8" font-family="Times,serif" font-size="14" text-anchor="middle">AuthModule</text></g><g id="node3" class="node"><title>MedicineModule</title><polygon fill="#8dd3c7" stroke="#000" points="792.42 -274 789.42 -278 768.42 -278 765.42 -274 679.58 -274 679.58 -238 792.42 -238 792.42 -274"/><text x="736" y="-251.8" font-family="Times,serif" font-size="14" text-anchor="middle">MedicineModule</text></g><g id="edge11" class="edge"><title>AuthModule-&gt;MedicineModule</title><path fill="none" stroke="#000" d="M675.7,-180C682.58,-180 687.47,-180 687.47,-180 687.47,-180 687.47,-227.99 687.47,-227.99"/><polygon fill="#000" stroke="#000" points="683.97 -227.99 687.47 -237.99 690.97 -227.99 683.97 -227.99"/></g><g id="node5" class="node"><title>AppModule</title><polygon fill="#8dd3c7" stroke="#000" points="777.66 -339 774.66 -343 753.66 -343 750.66 -339 694.34 -339 694.34 -303 777.66 -303 777.66 -339"/><text x="736" y="-316.8" font-family="Times,serif" font-size="14" text-anchor="middle">AppModule</text></g><g id="edge1" class="edge"><title>AuthModule-&gt;AppModule</title><path fill="none" stroke="#000" d="M668.69,-198.08C668.69,-234.23 668.69,-312 668.69,-312 668.69,-312 684.14,-312 684.14,-312"/><polygon fill="#000" stroke="#000" points="684.14 -315.5 694.14 -312 684.14 -308.5 684.14 -315.5"/></g><g id="node7" class="node"><title>JwtStrategy</title><polygon fill="#fb8072" stroke="#000" points="800.6 -122 715.4 -122 715.4 -86 800.6 -86 800.6 -122"/><text x="758" y="-99.8" font-family="Times,serif" font-size="14" text-anchor="middle">JwtStrategy</text></g><g id="edge6" class="edge"><title>AuthModule-&gt;JwtStrategy</title><path fill="none" stroke="#000" stroke-dasharray="5 2" d="M646.59,-161.89C646.59,-152.1 646.59,-142 646.59,-142 646.59,-142 753.51,-142 753.51,-142 753.51,-142 753.51,-132.11 753.51,-132.11"/><polygon fill="#000" stroke="#000" points="757.01 -132.11 753.51 -122.11 750.01 -132.11 757.01 -132.11"/></g><g id="node2" class="node"><title>CheckoutModule</title><polygon fill="#8dd3c7" stroke="#000" points="661.71 -274 658.71 -278 637.71 -278 634.71 -274 548.29 -274 548.29 -238 661.71 -238 661.71 -274"/><text x="605" y="-251.8" font-family="Times,serif" font-size="14" text-anchor="middle">CheckoutModule</text></g><g id="edge2" class="edge"><title>CheckoutModule-&gt;AppModule</title><path fill="none" stroke="#000" d="M605,-274.11C605,-293.34 605,-321 605,-321 605,-321 684.19,-321 684.19,-321"/><polygon fill="#000" stroke="#000" points="684.19 -324.5 694.19 -321 684.19 -317.5 684.19 -324.5"/></g><g id="edge3" class="edge"><title>MedicineModule-&gt;AppModule</title><path fill="none" stroke="#000" d="M736,-274.11C736,-274.11 736,-292.99 736,-292.99"/><polygon fill="#000" stroke="#000" points="732.5 -292.99 736 -302.99 739.5 -292.99 732.5 -292.99"/></g><g id="node4" class="node"><title>OrdersModule</title><polygon fill="#8dd3c7" stroke="#000" points="791.64 -198 788.64 -202 767.64 -202 764.64 -198 694.36 -198 694.36 -162 791.64 -162 791.64 -198"/><text x="743" y="-175.8" font-family="Times,serif" font-size="14" text-anchor="middle">OrdersModule</text></g><g id="edge9" class="edge"><title>OrdersModule-&gt;CheckoutModule</title><path fill="none" stroke="#000" d="M743,-198.15C743,-211.74 743,-228 743,-228 743,-228 624.91,-228 624.91,-228 624.91,-228 624.91,-228.98 624.91,-228.98"/><polygon fill="#000" stroke="#000" points="621.41 -227.79 624.91 -237.79 628.41 -227.79 621.41 -227.79"/></g><g id="edge4" class="edge"><title>OrdersModule-&gt;AppModule</title><path fill="none" stroke="#000" d="M791.94,-189C794.78,-189 796.5,-189 796.5,-189 796.5,-189 796.5,-321 796.5,-321 796.5,-321 787.69,-321 787.69,-321"/><polygon fill="#000" stroke="#000" points="787.69 -317.5 777.69 -321 787.69 -324.5 787.69 -317.5"/></g><g id="node12" class="node"><title>OrdersService</title><polygon fill="#fb8072" stroke="#000" points="1119.57 -274 1020.43 -274 1020.43 -238 1119.57 -238 1119.57 -274"/><text x="1070" y="-251.8" font-family="Times,serif" font-size="14" text-anchor="middle">OrdersService</text></g><g id="edge13" class="edge"><title>OrdersModule-&gt;OrdersService</title><path fill="none" stroke="#000" stroke-dasharray="5 2" d="M791.96,-171C883.18,-171 1070,-171 1070,-171 1070,-171 1070,-227.97 1070,-227.97"/><polygon fill="#000" stroke="#000" points="1066.5 -227.97 1070 -237.97 1073.5 -227.97 1066.5 -227.97"/></g><g id="node6" class="node"><title>AppService</title><ellipse cx="467" cy="-256" fill="#fdb462" stroke="#000" rx="56.74" ry="18"/><text x="467" y="-251.8" font-family="Times,serif" font-size="14" text-anchor="middle">AppService</text></g><g id="edge5" class="edge"><title>AppService-&gt;AppModule</title><path fill="none" stroke="#000" d="M467,-274.29C467,-296.21 467,-330 467,-330 467,-330 684.26,-330 684.26,-330"/><polygon fill="#000" stroke="#000" points="684.26 -333.5 694.26 -330 684.26 -326.5 684.26 -333.5"/></g><g id="node8" class="node"><title>AuthService</title><ellipse cx="632" cy="-104" fill="#fdb462" stroke="#000" rx="59.11" ry="18"/><text x="632" y="-99.8" font-family="Times,serif" font-size="14" text-anchor="middle">AuthService</text></g><g id="edge7" class="edge"><title>AuthService-&gt;AuthModule</title><path fill="none" stroke="#000" d="M617.41,-121.63C617.41,-121.63 617.41,-151.94 617.41,-151.94"/><polygon fill="#000" stroke="#000" points="613.91 -151.94 617.41 -161.94 620.91 -151.94 613.91 -151.94"/></g><g id="node9" class="node"><title>JwtStrategy</title><ellipse cx="498" cy="-104" fill="#fdb462" stroke="#000" rx="56.76" ry="18"/><text x="498" y="-99.8" font-family="Times,serif" font-size="14" text-anchor="middle">JwtStrategy</text></g><g id="edge8" class="edge"><title>JwtStrategy-&gt;AuthModule</title><path fill="none" stroke="#000" d="M536.01,-117.59C536.01,-139.45 536.01,-180 536.01,-180 536.01,-180 578.22,-180 578.22,-180"/><polygon fill="#000" stroke="#000" points="578.22 -183.5 588.22 -180 578.22 -176.5 578.22 -183.5"/></g><g id="node10" class="node"><title>CheckoutService</title><ellipse cx="101" cy="-180" fill="#fdb462" stroke="#000" rx="77.01" ry="18"/><text x="101" y="-175.8" font-family="Times,serif" font-size="14" text-anchor="middle">CheckoutService</text></g><g id="edge10" class="edge"><title>CheckoutService-&gt;CheckoutModule</title><path fill="none" stroke="#000" d="M101,-198.11C101,-207.9 101,-218 101,-218 101,-218 563.66,-218 563.66,-218 563.66,-218 563.66,-227.89 563.66,-227.89"/><polygon fill="#000" stroke="#000" points="560.16 -227.89 563.66 -237.89 567.16 -227.89 560.16 -227.89"/></g><g id="node11" class="node"><title>MedicineService</title><ellipse cx="294" cy="-180" fill="#fdb462" stroke="#000" rx="76.42" ry="18"/><text x="294" y="-175.8" font-family="Times,serif" font-size="14" text-anchor="middle">MedicineService</text></g><g id="edge12" class="edge"><title>MedicineService-&gt;MedicineModule</title><path fill="none" stroke="#000" d="M294,-198.21C294,-203.55 294,-208 294,-208 294,-208 683.63,-208 683.63,-208 683.63,-208 683.63,-227.85 683.63,-227.85"/><polygon fill="#000" stroke="#000" points="680.13 -227.85 683.63 -237.85 687.13 -227.85 680.13 -227.85"/></g><g id="node13" class="node"><title>OrdersService</title><ellipse cx="930" cy="-256" fill="#fdb462" stroke="#000" rx="66.03" ry="18"/><text x="930" y="-251.8" font-family="Times,serif" font-size="14" text-anchor="middle">OrdersService</text></g><g id="edge14" class="edge"><title>OrdersService-&gt;OrdersModule</title><path fill="none" stroke="#000" d="M930,-237.99C930,-215.51 930,-180 930,-180 930,-180 801.64,-180 801.64,-180"/><polygon fill="#000" stroke="#000" points="801.64 -176.5 791.64 -180 801.64 -183.5 801.64 -176.5"/></g></g></svg>