<svg xmlns="http://www.w3.org/2000/svg" xmlns:xlink="http://www.w3.org/1999/xlink" width="659pt" height="211pt" viewBox="0 0 659 211"><g id="graph0" class="graph" transform="scale(1 1) rotate(0) translate(4 207)"><title>dependencies</title><polygon fill="#fff" stroke="transparent" points="-4 4 -4 -207 655 -207 655 4 -4 4"/><text x="304.51" y="-42.4" font-family="Times-12" font-size="14" font-weight="bold" text-anchor="start">Legend</text><polygon fill="#ffffb3" stroke="transparent" points="91.5 -10 91.5 -30 111.5 -30 111.5 -10 91.5 -10"/><text x="115.13" y="-15.4" font-family="Times-12" font-size="14" text-anchor="start">Declarations</text><polygon fill="#8dd3c7" stroke="transparent" points="204.5 -10 204.5 -30 224.5 -30 224.5 -10 204.5 -10"/><text x="228.23" y="-15.4" font-family="Times-12" font-size="14" text-anchor="start">Module</text><polygon fill="#80b1d3" stroke="transparent" points="290.5 -10 290.5 -30 310.5 -30 310.5 -10 290.5 -10"/><text x="314.28" y="-15.4" font-family="Times-12" font-size="14" text-anchor="start">Bootstrap</text><polygon fill="#fdb462" stroke="transparent" points="387.5 -10 387.5 -30 407.5 -30 407.5 -10 387.5 -10"/><text x="411.17" y="-15.4" font-family="Times-12" font-size="14" text-anchor="start">Providers</text><polygon fill="#fb8072" stroke="transparent" points="483.5 -10 483.5 -30 503.5 -30 503.5 -10 483.5 -10"/><text x="507.23" y="-15.4" font-family="Times-12" font-size="14" text-anchor="start">Exports</text><g id="clust1" class="cluster"><title>cluster_AppModule</title><polygon fill="none" stroke="#000" stroke-dasharray="1 5" points="8 -70 8 -195 643 -195 643 -70 8 -70"/></g><g id="clust3" class="cluster"><title>cluster_AppModule_imports</title><polygon fill="none" stroke="#000" points="154 -78 154 -130 635 -130 635 -78 154 -78"/></g><g id="clust6" class="cluster"><title>cluster_AppModule_providers</title><polygon fill="none" stroke="#000" points="16 -78 16 -130 146 -130 146 -78 16 -78"/></g><g id="node1" class="node"><title>AuthModule</title><polygon fill="#8dd3c7" stroke="#000" points="626.55 -122 623.55 -126 602.55 -126 599.55 -122 539.45 -122 539.45 -86 626.55 -86 626.55 -122"/><text x="583" y="-99.8" font-family="Times,serif" font-size="14" text-anchor="middle">AuthModule</text></g><g id="node5" class="node"><title>AppModule</title><polygon fill="#8dd3c7" stroke="#000" points="375.66 -187 372.66 -191 351.66 -191 348.66 -187 292.34 -187 292.34 -151 375.66 -151 375.66 -187"/><text x="334" y="-164.8" font-family="Times,serif" font-size="14" text-anchor="middle">AppModule</text></g><g id="edge1" class="edge"><title>AuthModule-&gt;AppModule</title><path fill="none" stroke="#000" d="M583,-122.28C583,-143.32 583,-175 583,-175 583,-175 385.68,-175 385.68,-175"/><polygon fill="#000" stroke="#000" points="385.68 -171.5 375.68 -175 385.68 -178.5 385.68 -171.5"/></g><g id="node2" class="node"><title>CheckoutModule</title><polygon fill="#8dd3c7" stroke="#000" points="521.71 -122 518.71 -126 497.71 -126 494.71 -122 408.29 -122 408.29 -86 521.71 -86 521.71 -122"/><text x="465" y="-99.8" font-family="Times,serif" font-size="14" text-anchor="middle">CheckoutModule</text></g><g id="edge2" class="edge"><title>CheckoutModule-&gt;AppModule</title><path fill="none" stroke="#000" d="M465,-122.02C465,-139.37 465,-163 465,-163 465,-163 385.81,-163 385.81,-163"/><polygon fill="#000" stroke="#000" points="385.81 -159.5 375.81 -163 385.81 -166.5 385.81 -159.5"/></g><g id="node3" class="node"><title>MedicineModule</title><polygon fill="#8dd3c7" stroke="#000" points="390.42 -122 387.42 -126 366.42 -126 363.42 -122 277.58 -122 277.58 -86 390.42 -86 390.42 -122"/><text x="334" y="-99.8" font-family="Times,serif" font-size="14" text-anchor="middle">MedicineModule</text></g><g id="edge3" class="edge"><title>MedicineModule-&gt;AppModule</title><path fill="none" stroke="#000" d="M334,-122.11C334,-122.11 334,-140.99 334,-140.99"/><polygon fill="#000" stroke="#000" points="330.5 -140.99 334 -150.99 337.5 -140.99 330.5 -140.99"/></g><g id="node4" class="node"><title>OrdersModule</title><polygon fill="#8dd3c7" stroke="#000" points="259.64 -122 256.64 -126 235.64 -126 232.64 -122 162.36 -122 162.36 -86 259.64 -86 259.64 -122"/><text x="211" y="-99.8" font-family="Times,serif" font-size="14" text-anchor="middle">OrdersModule</text></g><g id="edge4" class="edge"><title>OrdersModule-&gt;AppModule</title><path fill="none" stroke="#000" d="M211,-122.02C211,-139.37 211,-163 211,-163 211,-163 282.01,-163 282.01,-163"/><polygon fill="#000" stroke="#000" points="282.01 -166.5 292.01 -163 282.01 -159.5 282.01 -166.5"/></g><g id="node6" class="node"><title>AppService</title><ellipse cx="81" cy="-104" fill="#fdb462" stroke="#000" rx="56.74" ry="18"/><text x="81" y="-99.8" font-family="Times,serif" font-size="14" text-anchor="middle">AppService</text></g><g id="edge5" class="edge"><title>AppService-&gt;AppModule</title><path fill="none" stroke="#000" d="M81,-122.28C81,-143.32 81,-175 81,-175 81,-175 282.22,-175 282.22,-175"/><polygon fill="#000" stroke="#000" points="282.22 -178.5 292.22 -175 282.22 -171.5 282.22 -178.5"/></g></g></svg>