<?xml version="1.0" encoding="UTF-8" standalone="no"?>
<!DOCTYPE svg PUBLIC "-//W3C//DTD SVG 1.1//EN"
 "http://www.w3.org/Graphics/SVG/1.1/DTD/svg11.dtd">
<!-- Generated by graphviz version 2.47.0 (20210316.0004)
 -->
<!-- Title: dependencies Pages: 1 -->
<svg width="773pt" height="211pt"
 viewBox="0.00 0.00 773.00 211.00" xmlns="http://www.w3.org/2000/svg" xmlns:xlink="http://www.w3.org/1999/xlink">
<g id="graph0" class="graph" transform="scale(1 1) rotate(0) translate(4 207)">
<title>dependencies</title>
<polygon fill="white" stroke="transparent" points="-4,4 -4,-207 769,-207 769,4 -4,4"/>
<text text-anchor="start" x="361.51" y="-42.4" font-family="Times-12" font-weight="bold" font-size="14.00">Legend</text>
<polygon fill="#ffffb3" stroke="transparent" points="148.5,-10 148.5,-30 168.5,-30 168.5,-10 148.5,-10"/>
<text text-anchor="start" x="172.13" y="-15.4" font-family="Times-12" font-size="14.00"> &#160;Declarations</text>
<polygon fill="#8dd3c7" stroke="transparent" points="261.5,-10 261.5,-30 281.5,-30 281.5,-10 261.5,-10"/>
<text text-anchor="start" x="285.23" y="-15.4" font-family="Times-12" font-size="14.00"> &#160;Module</text>
<polygon fill="#80b1d3" stroke="transparent" points="347.5,-10 347.5,-30 367.5,-30 367.5,-10 347.5,-10"/>
<text text-anchor="start" x="371.28" y="-15.4" font-family="Times-12" font-size="14.00"> &#160;Bootstrap</text>
<polygon fill="#fdb462" stroke="transparent" points="444.5,-10 444.5,-30 464.5,-30 464.5,-10 444.5,-10"/>
<text text-anchor="start" x="468.17" y="-15.4" font-family="Times-12" font-size="14.00"> &#160;Providers</text>
<polygon fill="#fb8072" stroke="transparent" points="540.5,-10 540.5,-30 560.5,-30 560.5,-10 540.5,-10"/>
<text text-anchor="start" x="564.23" y="-15.4" font-family="Times-12" font-size="14.00"> &#160;Exports</text>
<g id="clust1" class="cluster">
<title>cluster_AppModule</title>
<polygon fill="none" stroke="black" stroke-dasharray="1,5" points="8,-70 8,-195 757,-195 757,-70 8,-70"/>
</g>
<g id="clust6" class="cluster">
<title>cluster_AppModule_providers</title>
<polygon fill="none" stroke="black" points="619,-78 619,-130 749,-130 749,-78 619,-78"/>
</g>
<g id="clust3" class="cluster">
<title>cluster_AppModule_imports</title>
<polygon fill="none" stroke="black" points="16,-78 16,-130 611,-130 611,-78 16,-78"/>
</g>
<!-- AuthModule -->
<g id="node1" class="node">
<title>AuthModule</title>
<polygon fill="#8dd3c7" stroke="black" points="602.55,-122 599.55,-126 578.55,-126 575.55,-122 515.45,-122 515.45,-86 602.55,-86 602.55,-122"/>
<text text-anchor="middle" x="559" y="-99.8" font-family="Times,serif" font-size="14.00">AuthModule</text>
</g>
<!-- AppModule -->
<g id="node6" class="node">
<title>AppModule</title>
<polygon fill="#8dd3c7" stroke="black" points="416.66,-187 413.66,-191 392.66,-191 389.66,-187 333.34,-187 333.34,-151 416.66,-151 416.66,-187"/>
<text text-anchor="middle" x="375" y="-164.8" font-family="Times,serif" font-size="14.00">AppModule</text>
</g>
<!-- AuthModule&#45;&gt;AppModule -->
<g id="edge1" class="edge">
<title>AuthModule&#45;&gt;AppModule</title>
<path fill="none" stroke="black" d="M559,-122.02C559,-139.37 559,-163 559,-163 559,-163 426.75,-163 426.75,-163"/>
<polygon fill="black" stroke="black" points="426.75,-159.5 416.75,-163 426.75,-166.5 426.75,-159.5"/>
</g>
<!-- CheckoutModule -->
<g id="node2" class="node">
<title>CheckoutModule</title>
<polygon fill="#8dd3c7" stroke="black" points="497.71,-122 494.71,-126 473.71,-126 470.71,-122 384.29,-122 384.29,-86 497.71,-86 497.71,-122"/>
<text text-anchor="middle" x="441" y="-99.8" font-family="Times,serif" font-size="14.00">CheckoutModule</text>
</g>
<!-- CheckoutModule&#45;&gt;AppModule -->
<g id="edge2" class="edge">
<title>CheckoutModule&#45;&gt;AppModule</title>
<path fill="none" stroke="black" d="M400.61,-122.11C400.61,-122.11 400.61,-140.99 400.61,-140.99"/>
<polygon fill="black" stroke="black" points="397.11,-140.99 400.61,-150.99 404.11,-140.99 397.11,-140.99"/>
</g>
<!-- MedicineModule -->
<g id="node3" class="node">
<title>MedicineModule</title>
<polygon fill="#8dd3c7" stroke="black" points="366.42,-122 363.42,-126 342.42,-126 339.42,-122 253.58,-122 253.58,-86 366.42,-86 366.42,-122"/>
<text text-anchor="middle" x="310" y="-99.8" font-family="Times,serif" font-size="14.00">MedicineModule</text>
</g>
<!-- MedicineModule&#45;&gt;AppModule -->
<g id="edge3" class="edge">
<title>MedicineModule&#45;&gt;AppModule</title>
<path fill="none" stroke="black" d="M349.69,-122.11C349.69,-122.11 349.69,-140.99 349.69,-140.99"/>
<polygon fill="black" stroke="black" points="346.19,-140.99 349.69,-150.99 353.19,-140.99 346.19,-140.99"/>
</g>
<!-- OrdersModule -->
<g id="node4" class="node">
<title>OrdersModule</title>
<polygon fill="#8dd3c7" stroke="black" points="235.64,-122 232.64,-126 211.64,-126 208.64,-122 138.36,-122 138.36,-86 235.64,-86 235.64,-122"/>
<text text-anchor="middle" x="187" y="-99.8" font-family="Times,serif" font-size="14.00">OrdersModule</text>
</g>
<!-- OrdersModule&#45;&gt;AppModule -->
<g id="edge4" class="edge">
<title>OrdersModule&#45;&gt;AppModule</title>
<path fill="none" stroke="black" d="M187,-122.02C187,-139.37 187,-163 187,-163 187,-163 323.28,-163 323.28,-163"/>
<polygon fill="black" stroke="black" points="323.28,-166.5 333.28,-163 323.28,-159.5 323.28,-166.5"/>
</g>
<!-- StocksModule -->
<g id="node5" class="node">
<title>StocksModule</title>
<polygon fill="#8dd3c7" stroke="black" points="120.38,-122 117.38,-126 96.38,-126 93.38,-122 23.62,-122 23.62,-86 120.38,-86 120.38,-122"/>
<text text-anchor="middle" x="72" y="-99.8" font-family="Times,serif" font-size="14.00">StocksModule</text>
</g>
<!-- StocksModule&#45;&gt;AppModule -->
<g id="edge5" class="edge">
<title>StocksModule&#45;&gt;AppModule</title>
<path fill="none" stroke="black" d="M72,-122.28C72,-143.32 72,-175 72,-175 72,-175 323.19,-175 323.19,-175"/>
<polygon fill="black" stroke="black" points="323.19,-178.5 333.19,-175 323.19,-171.5 323.19,-178.5"/>
</g>
<!-- AppService -->
<g id="node7" class="node">
<title>AppService</title>
<ellipse fill="#fdb462" stroke="black" cx="684" cy="-104" rx="56.74" ry="18"/>
<text text-anchor="middle" x="684" y="-99.8" font-family="Times,serif" font-size="14.00">AppService</text>
</g>
<!-- AppService&#45;&gt;AppModule -->
<g id="edge6" class="edge">
<title>AppService&#45;&gt;AppModule</title>
<path fill="none" stroke="black" d="M684,-122.28C684,-143.32 684,-175 684,-175 684,-175 426.67,-175 426.67,-175"/>
<polygon fill="black" stroke="black" points="426.67,-171.5 416.67,-175 426.67,-178.5 426.67,-171.5"/>
</g>
</g>
</svg>
