<?xml version="1.0" encoding="UTF-8" standalone="no"?>
<!DOCTYPE svg PUBLIC "-//W3C//DTD SVG 1.1//EN"
 "http://www.w3.org/Graphics/SVG/1.1/DTD/svg11.dtd">
<!-- Generated by graphviz version 2.47.0 (20210316.0004)
 -->
<!-- Title: dependencies Pages: 1 -->
<svg width="504pt" height="211pt"
 viewBox="0.00 0.00 504.00 211.00" xmlns="http://www.w3.org/2000/svg" xmlns:xlink="http://www.w3.org/1999/xlink">
<g id="graph0" class="graph" transform="scale(1 1) rotate(0) translate(4 207)">
<title>dependencies</title>
<polygon fill="white" stroke="transparent" points="-4,4 -4,-207 500,-207 500,4 -4,4"/>
<text text-anchor="start" x="227.01" y="-42.4" font-family="Times-12" font-weight="bold" font-size="14.00">Legend</text>
<polygon fill="#ffffb3" stroke="transparent" points="14,-10 14,-30 34,-30 34,-10 14,-10"/>
<text text-anchor="start" x="37.63" y="-15.4" font-family="Times-12" font-size="14.00"> &#160;Declarations</text>
<polygon fill="#8dd3c7" stroke="transparent" points="127,-10 127,-30 147,-30 147,-10 127,-10"/>
<text text-anchor="start" x="150.73" y="-15.4" font-family="Times-12" font-size="14.00"> &#160;Module</text>
<polygon fill="#80b1d3" stroke="transparent" points="213,-10 213,-30 233,-30 233,-10 213,-10"/>
<text text-anchor="start" x="236.78" y="-15.4" font-family="Times-12" font-size="14.00"> &#160;Bootstrap</text>
<polygon fill="#fdb462" stroke="transparent" points="310,-10 310,-30 330,-30 330,-10 310,-10"/>
<text text-anchor="start" x="333.67" y="-15.4" font-family="Times-12" font-size="14.00"> &#160;Providers</text>
<polygon fill="#fb8072" stroke="transparent" points="406,-10 406,-30 426,-30 426,-10 406,-10"/>
<text text-anchor="start" x="429.73" y="-15.4" font-family="Times-12" font-size="14.00"> &#160;Exports</text>
<g id="clust1" class="cluster">
<title>cluster_MedicineModule</title>
<polygon fill="none" stroke="black" stroke-dasharray="1,5" points="100,-70 100,-195 396,-195 396,-70 100,-70"/>
</g>
<g id="clust6" class="cluster">
<title>cluster_MedicineModule_providers</title>
<polygon fill="none" stroke="black" points="220,-78 220,-130 388,-130 388,-78 220,-78"/>
</g>
<g id="clust3" class="cluster">
<title>cluster_MedicineModule_imports</title>
<polygon fill="none" stroke="black" points="108,-78 108,-130 212,-130 212,-78 108,-78"/>
</g>
<!-- AuthModule -->
<g id="node1" class="node">
<title>AuthModule</title>
<polygon fill="#8dd3c7" stroke="black" points="203.55,-122 200.55,-126 179.55,-126 176.55,-122 116.45,-122 116.45,-86 203.55,-86 203.55,-122"/>
<text text-anchor="middle" x="160" y="-99.8" font-family="Times,serif" font-size="14.00">AuthModule</text>
</g>
<!-- MedicineModule -->
<g id="node2" class="node">
<title>MedicineModule</title>
<polygon fill="#8dd3c7" stroke="black" points="290.42,-187 287.42,-191 266.42,-191 263.42,-187 177.58,-187 177.58,-151 290.42,-151 290.42,-187"/>
<text text-anchor="middle" x="234" y="-164.8" font-family="Times,serif" font-size="14.00">MedicineModule</text>
</g>
<!-- AuthModule&#45;&gt;MedicineModule -->
<g id="edge1" class="edge">
<title>AuthModule&#45;&gt;MedicineModule</title>
<path fill="none" stroke="black" d="M190.78,-122.11C190.78,-122.11 190.78,-140.99 190.78,-140.99"/>
<polygon fill="black" stroke="black" points="187.28,-140.99 190.78,-150.99 194.28,-140.99 187.28,-140.99"/>
</g>
<!-- MedicineService -->
<g id="node3" class="node">
<title>MedicineService</title>
<ellipse fill="#fdb462" stroke="black" cx="304" cy="-104" rx="76.42" ry="18"/>
<text text-anchor="middle" x="304" y="-99.8" font-family="Times,serif" font-size="14.00">MedicineService</text>
</g>
<!-- MedicineService&#45;&gt;MedicineModule -->
<g id="edge2" class="edge">
<title>MedicineService&#45;&gt;MedicineModule</title>
<path fill="none" stroke="black" d="M258.87,-118.75C258.87,-118.75 258.87,-140.59 258.87,-140.59"/>
<polygon fill="black" stroke="black" points="255.37,-140.59 258.87,-150.59 262.37,-140.59 255.37,-140.59"/>
</g>
</g>
</svg>
